<?xml version="1.0" standalone="no"?>
<!DOCTYPE svg PUBLIC "-//W3C//DTD SVG 20010904//EN"
 "http://www.w3.org/TR/2001/REC-SVG-20010904/DTD/svg10.dtd">
<svg version="1.0" xmlns="http://www.w3.org/2000/svg"
 width="1080.000000pt" height="1080.000000pt" viewBox="0 0 1080.000000 1080.000000"
 preserveAspectRatio="xMidYMid meet">

<g transform="translate(0.000000,1080.000000) scale(0.100000,-0.100000)"
fill="#000000" stroke="none">
<path d="M3270 5375 l0 -585 140 0 140 0 -1 328 c0 180 -4 368 -7 419 -4 51
-4 89 -1 85 3 -4 50 -162 103 -352 54 -190 106 -375 117 -412 l20 -68 149 0
149 0 20 68 c11 37 63 222 117 412 53 190 97 346 99 348 1 1 0 -185 -3 -413
l-5 -415 147 0 146 0 0 585 0 585 -210 0 -209 0 -9 -32 c-119 -420 -226 -785
-231 -790 -4 -4 -61 178 -127 405 l-121 412 -212 3 -211 2 0 -585z"/>
<path d="M4850 5375 l0 -585 350 0 350 0 0 130 0 130 -190 0 -190 0 0 110 0
110 175 0 175 0 0 125 0 125 -175 0 -175 0 0 90 0 90 188 2 187 3 3 128 3 127
-351 0 -350 0 0 -585z"/>
<path d="M5750 5375 l0 -587 263 5 c286 4 327 11 445 68 131 64 233 204 267
364 19 89 19 250 1 336 -32 150 -124 269 -257 332 -112 53 -149 59 -446 64
l-273 5 0 -587z m525 306 c94 -42 137 -136 136 -297 0 -230 -86 -334 -278
-334 l-63 0 0 325 0 325 83 0 c58 0 94 -6 122 -19z"/>
<path d="M6950 5375 l0 -585 350 0 350 0 0 130 0 130 -190 0 -190 0 0 110 0
110 175 0 175 0 0 125 0 125 -175 0 -175 0 0 90 0 90 188 2 187 3 3 128 3 127
-351 0 -350 0 0 -585z"/>
</g>
</svg>
